<svg width="797" height="350" viewBox="0 0 797 350" fill="none" xmlns="http://www.w3.org/2000/svg">
<path d="M175.078 88.875V123H168.047V88.875H175.078ZM188.672 103.453V108.938H173.156V103.453H188.672ZM190.312 88.875V94.3828H173.156V88.875H190.312ZM201.094 97.6406V123H194.32V97.6406H201.094ZM193.898 91.0312C193.898 90.0469 194.242 89.2344 194.93 88.5938C195.617 87.9531 196.539 87.6328 197.695 87.6328C198.836 87.6328 199.75 87.9531 200.438 88.5938C201.141 89.2344 201.492 90.0469 201.492 91.0312C201.492 92.0156 201.141 92.8281 200.438 93.4688C199.75 94.1094 198.836 94.4297 197.695 94.4297C196.539 94.4297 195.617 94.1094 194.93 93.4688C194.242 92.8281 193.898 92.0156 193.898 91.0312ZM213.281 103.055V123H206.531V97.6406H212.859L213.281 103.055ZM212.297 109.43H210.469C210.469 107.555 210.711 105.867 211.195 104.367C211.68 102.852 212.359 101.562 213.234 100.5C214.109 99.4219 215.148 98.6016 216.352 98.0391C217.57 97.4609 218.93 97.1719 220.43 97.1719C221.617 97.1719 222.703 97.3438 223.688 97.6875C224.672 98.0312 225.516 98.5781 226.219 99.3281C226.938 100.078 227.484 101.07 227.859 102.305C228.25 103.539 228.445 105.047 228.445 106.828V123H221.648V106.805C221.648 105.68 221.492 104.805 221.18 104.18C220.867 103.555 220.406 103.117 219.797 102.867C219.203 102.602 218.469 102.469 217.594 102.469C216.688 102.469 215.898 102.648 215.227 103.008C214.57 103.367 214.023 103.867 213.586 104.508C213.164 105.133 212.844 105.867 212.625 106.711C212.406 107.555 212.297 108.461 212.297 109.43ZM248.555 117.469V87H255.352V123H249.234L248.555 117.469ZM232.523 110.625V110.133C232.523 108.195 232.742 106.438 233.18 104.859C233.617 103.266 234.258 101.898 235.102 100.758C235.945 99.6172 236.984 98.7344 238.219 98.1094C239.453 97.4844 240.859 97.1719 242.438 97.1719C243.922 97.1719 245.219 97.4844 246.328 98.1094C247.453 98.7344 248.406 99.625 249.188 100.781C249.984 101.922 250.625 103.273 251.109 104.836C251.594 106.383 251.945 108.078 252.164 109.922V111C251.945 112.766 251.594 114.406 251.109 115.922C250.625 117.438 249.984 118.766 249.188 119.906C248.406 121.031 247.453 121.906 246.328 122.531C245.203 123.156 243.891 123.469 242.391 123.469C240.812 123.469 239.406 123.148 238.172 122.508C236.953 121.867 235.922 120.969 235.078 119.812C234.25 118.656 233.617 117.297 233.18 115.734C232.742 114.172 232.523 112.469 232.523 110.625ZM239.273 110.133V110.625C239.273 111.672 239.352 112.648 239.508 113.555C239.68 114.461 239.953 115.266 240.328 115.969C240.719 116.656 241.219 117.195 241.828 117.586C242.453 117.961 243.211 118.148 244.102 118.148C245.258 118.148 246.211 117.891 246.961 117.375C247.711 116.844 248.281 116.117 248.672 115.195C249.078 114.273 249.312 113.211 249.375 112.008V108.938C249.328 107.953 249.188 107.07 248.953 106.289C248.734 105.492 248.406 104.812 247.969 104.25C247.547 103.688 247.016 103.25 246.375 102.938C245.75 102.625 245.008 102.469 244.148 102.469C243.273 102.469 242.523 102.672 241.898 103.078C241.273 103.469 240.766 104.008 240.375 104.695C240 105.383 239.719 106.195 239.531 107.133C239.359 108.055 239.273 109.055 239.273 110.133ZM280.102 120.141L286.828 97.6406H294.07L283.875 126.82C283.656 127.461 283.359 128.148 282.984 128.883C282.625 129.617 282.133 130.312 281.508 130.969C280.898 131.641 280.125 132.188 279.188 132.609C278.266 133.031 277.133 133.242 275.789 133.242C275.148 133.242 274.625 133.203 274.219 133.125C273.812 133.047 273.328 132.938 272.766 132.797V127.852C272.938 127.852 273.117 127.852 273.305 127.852C273.492 127.867 273.672 127.875 273.844 127.875C274.734 127.875 275.461 127.773 276.023 127.57C276.586 127.367 277.039 127.055 277.383 126.633C277.727 126.227 278 125.695 278.203 125.039L280.102 120.141ZM277.289 97.6406L282.797 116.016L283.758 123.164L279.164 123.656L270.047 97.6406H277.289ZM295.312 110.578V110.086C295.312 108.227 295.578 106.516 296.109 104.953C296.641 103.375 297.414 102.008 298.43 100.852C299.445 99.6953 300.695 98.7969 302.18 98.1562C303.664 97.5 305.367 97.1719 307.289 97.1719C309.211 97.1719 310.922 97.5 312.422 98.1562C313.922 98.7969 315.18 99.6953 316.195 100.852C317.227 102.008 318.008 103.375 318.539 104.953C319.07 106.516 319.336 108.227 319.336 110.086V110.578C319.336 112.422 319.07 114.133 318.539 115.711C318.008 117.273 317.227 118.641 316.195 119.812C315.18 120.969 313.93 121.867 312.445 122.508C310.961 123.148 309.258 123.469 307.336 123.469C305.414 123.469 303.703 123.148 302.203 122.508C300.719 121.867 299.461 120.969 298.43 119.812C297.414 118.641 296.641 117.273 296.109 115.711C295.578 114.133 295.312 112.422 295.312 110.578ZM302.062 110.086V110.578C302.062 111.641 302.156 112.633 302.344 113.555C302.531 114.477 302.828 115.289 303.234 115.992C303.656 116.68 304.203 117.219 304.875 117.609C305.547 118 306.367 118.195 307.336 118.195C308.273 118.195 309.078 118 309.75 117.609C310.422 117.219 310.961 116.68 311.367 115.992C311.773 115.289 312.07 114.477 312.258 113.555C312.461 112.633 312.562 111.641 312.562 110.578V110.086C312.562 109.055 312.461 108.086 312.258 107.18C312.07 106.258 311.766 105.445 311.344 104.742C310.938 104.023 310.398 103.461 309.727 103.055C309.055 102.648 308.242 102.445 307.289 102.445C306.336 102.445 305.523 102.648 304.852 103.055C304.195 103.461 303.656 104.023 303.234 104.742C302.828 105.445 302.531 106.258 302.344 107.18C302.156 108.086 302.062 109.055 302.062 110.086ZM338.484 116.93V97.6406H345.234V123H338.883L338.484 116.93ZM339.234 111.727L341.227 111.68C341.227 113.367 341.031 114.938 340.641 116.391C340.25 117.828 339.664 119.078 338.883 120.141C338.102 121.188 337.117 122.008 335.93 122.602C334.742 123.18 333.344 123.469 331.734 123.469C330.5 123.469 329.359 123.297 328.312 122.953C327.281 122.594 326.391 122.039 325.641 121.289C324.906 120.523 324.328 119.547 323.906 118.359C323.5 117.156 323.297 115.711 323.297 114.023V97.6406H330.047V114.07C330.047 114.82 330.133 115.453 330.305 115.969C330.492 116.484 330.75 116.906 331.078 117.234C331.406 117.562 331.789 117.797 332.227 117.938C332.68 118.078 333.18 118.148 333.727 118.148C335.117 118.148 336.211 117.867 337.008 117.305C337.82 116.742 338.391 115.977 338.719 115.008C339.062 114.023 339.234 112.93 339.234 111.727ZM357.141 103.172V123H350.391V97.6406H356.742L357.141 103.172ZM364.781 97.4766L364.664 103.734C364.336 103.688 363.938 103.648 363.469 103.617C363.016 103.57 362.602 103.547 362.227 103.547C361.273 103.547 360.445 103.672 359.742 103.922C359.055 104.156 358.477 104.508 358.008 104.977C357.555 105.445 357.211 106.016 356.977 106.688C356.758 107.359 356.633 108.125 356.602 108.984L355.242 108.562C355.242 106.922 355.406 105.414 355.734 104.039C356.062 102.648 356.539 101.438 357.164 100.406C357.805 99.375 358.586 98.5781 359.508 98.0156C360.43 97.4531 361.484 97.1719 362.672 97.1719C363.047 97.1719 363.43 97.2031 363.82 97.2656C364.211 97.3125 364.531 97.3828 364.781 97.4766ZM387.047 87V123H380.273V87H387.047ZM404.297 123.469C402.328 123.469 400.562 123.156 399 122.531C397.438 121.891 396.109 121.008 395.016 119.883C393.938 118.758 393.109 117.453 392.531 115.969C391.953 114.469 391.664 112.875 391.664 111.188V110.25C391.664 108.328 391.938 106.57 392.484 104.977C393.031 103.383 393.812 102 394.828 100.828C395.859 99.6562 397.109 98.7578 398.578 98.1328C400.047 97.4922 401.703 97.1719 403.547 97.1719C405.344 97.1719 406.938 97.4688 408.328 98.0625C409.719 98.6562 410.883 99.5 411.82 100.594C412.773 101.688 413.492 103 413.977 104.531C414.461 106.047 414.703 107.734 414.703 109.594V112.406H394.547V107.906H408.07V107.391C408.07 106.453 407.898 105.617 407.555 104.883C407.227 104.133 406.727 103.539 406.055 103.102C405.383 102.664 404.523 102.445 403.477 102.445C402.586 102.445 401.82 102.641 401.18 103.031C400.539 103.422 400.016 103.969 399.609 104.672C399.219 105.375 398.922 106.203 398.719 107.156C398.531 108.094 398.438 109.125 398.438 110.25V111.188C398.438 112.203 398.578 113.141 398.859 114C399.156 114.859 399.57 115.602 400.102 116.227C400.648 116.852 401.305 117.336 402.07 117.68C402.852 118.023 403.734 118.195 404.719 118.195C405.938 118.195 407.07 117.961 408.117 117.492C409.18 117.008 410.094 116.281 410.859 115.312L414.141 118.875C413.609 119.641 412.883 120.375 411.961 121.078C411.055 121.781 409.961 122.359 408.68 122.812C407.398 123.25 405.938 123.469 404.297 123.469ZM430.969 97.6406V102.422H416.203V97.6406H430.969ZM419.859 91.3828H426.609V115.359C426.609 116.094 426.703 116.656 426.891 117.047C427.094 117.438 427.391 117.711 427.781 117.867C428.172 118.008 428.664 118.078 429.258 118.078C429.68 118.078 430.055 118.062 430.383 118.031C430.727 117.984 431.016 117.938 431.25 117.891L431.273 122.859C430.695 123.047 430.07 123.195 429.398 123.305C428.727 123.414 427.984 123.469 427.172 123.469C425.688 123.469 424.391 123.227 423.281 122.742C422.188 122.242 421.344 121.445 420.75 120.352C420.156 119.258 419.859 117.82 419.859 116.039V91.3828ZM447.234 97.6406V102.422H432.469V97.6406H447.234ZM436.125 91.3828H442.875V115.359C442.875 116.094 442.969 116.656 443.156 117.047C443.359 117.438 443.656 117.711 444.047 117.867C444.438 118.008 444.93 118.078 445.523 118.078C445.945 118.078 446.32 118.062 446.648 118.031C446.992 117.984 447.281 117.938 447.516 117.891L447.539 122.859C446.961 123.047 446.336 123.195 445.664 123.305C444.992 123.414 444.25 123.469 443.438 123.469C441.953 123.469 440.656 123.227 439.547 122.742C438.453 122.242 437.609 121.445 437.016 120.352C436.422 119.258 436.125 117.82 436.125 116.039V91.3828ZM462.75 123.469C460.781 123.469 459.016 123.156 457.453 122.531C455.891 121.891 454.562 121.008 453.469 119.883C452.391 118.758 451.562 117.453 450.984 115.969C450.406 114.469 450.117 112.875 450.117 111.188V110.25C450.117 108.328 450.391 106.57 450.938 104.977C451.484 103.383 452.266 102 453.281 100.828C454.312 99.6562 455.562 98.7578 457.031 98.1328C458.5 97.4922 460.156 97.1719 462 97.1719C463.797 97.1719 465.391 97.4688 466.781 98.0625C468.172 98.6562 469.336 99.5 470.273 100.594C471.227 101.688 471.945 103 472.43 104.531C472.914 106.047 473.156 107.734 473.156 109.594V112.406H453V107.906H466.523V107.391C466.523 106.453 466.352 105.617 466.008 104.883C465.68 104.133 465.18 103.539 464.508 103.102C463.836 102.664 462.977 102.445 461.93 102.445C461.039 102.445 460.273 102.641 459.633 103.031C458.992 103.422 458.469 103.969 458.062 104.672C457.672 105.375 457.375 106.203 457.172 107.156C456.984 108.094 456.891 109.125 456.891 110.25V111.188C456.891 112.203 457.031 113.141 457.312 114C457.609 114.859 458.023 115.602 458.555 116.227C459.102 116.852 459.758 117.336 460.523 117.68C461.305 118.023 462.188 118.195 463.172 118.195C464.391 118.195 465.523 117.961 466.57 117.492C467.633 117.008 468.547 116.281 469.312 115.312L472.594 118.875C472.062 119.641 471.336 120.375 470.414 121.078C469.508 121.781 468.414 122.359 467.133 122.812C465.852 123.25 464.391 123.469 462.75 123.469ZM483.75 103.172V123H477V97.6406H483.352L483.75 103.172ZM491.391 97.4766L491.273 103.734C490.945 103.688 490.547 103.648 490.078 103.617C489.625 103.57 489.211 103.547 488.836 103.547C487.883 103.547 487.055 103.672 486.352 103.922C485.664 104.156 485.086 104.508 484.617 104.977C484.164 105.445 483.82 106.016 483.586 106.688C483.367 107.359 483.242 108.125 483.211 108.984L481.852 108.562C481.852 106.922 482.016 105.414 482.344 104.039C482.672 102.648 483.148 101.438 483.773 100.406C484.414 99.375 485.195 98.5781 486.117 98.0156C487.039 97.4531 488.094 97.1719 489.281 97.1719C489.656 97.1719 490.039 97.2031 490.43 97.2656C490.82 97.3125 491.141 97.3828 491.391 97.4766ZM497.273 117.305L497.25 121.828C497.25 123.562 496.812 125.312 495.938 127.078C495.078 128.844 493.984 130.289 492.656 131.414L489.141 129.609C489.531 128.891 489.914 128.172 490.289 127.453C490.664 126.734 490.977 125.945 491.227 125.086C491.477 124.227 491.602 123.25 491.602 122.156V117.305H497.273ZM173.121 141.207V143.148H165.123V141.207H173.121ZM167.83 137.611H170.359V152.336C170.359 152.837 170.437 153.215 170.592 153.471C170.747 153.726 170.947 153.895 171.193 153.977C171.439 154.059 171.704 154.1 171.986 154.1C172.196 154.1 172.415 154.081 172.643 154.045C172.88 153.999 173.057 153.963 173.176 153.936L173.189 156C172.989 156.064 172.725 156.123 172.396 156.178C172.077 156.242 171.69 156.273 171.234 156.273C170.615 156.273 170.045 156.15 169.525 155.904C169.006 155.658 168.591 155.248 168.281 154.674C167.98 154.09 167.83 153.307 167.83 152.322V137.611ZM180.244 154.469L184.359 141.207H187.066L181.133 158.283C180.996 158.648 180.814 159.04 180.586 159.459C180.367 159.887 180.085 160.293 179.738 160.676C179.392 161.059 178.973 161.368 178.48 161.605C177.997 161.852 177.419 161.975 176.744 161.975C176.544 161.975 176.288 161.947 175.979 161.893C175.669 161.838 175.45 161.792 175.322 161.756L175.309 159.705C175.382 159.714 175.495 159.723 175.65 159.732C175.814 159.751 175.928 159.76 175.992 159.76C176.566 159.76 177.054 159.682 177.455 159.527C177.856 159.382 178.193 159.131 178.467 158.775C178.749 158.429 178.991 157.951 179.191 157.34L180.244 154.469ZM177.223 141.207L181.064 152.691L181.721 155.357L179.902 156.287L174.461 141.207H177.223ZM191.879 144.051V161.688H189.336V141.207H191.66L191.879 144.051ZM201.846 148.48V148.768C201.846 149.843 201.718 150.841 201.463 151.762C201.208 152.673 200.834 153.466 200.342 154.141C199.859 154.815 199.262 155.339 198.551 155.713C197.84 156.087 197.024 156.273 196.104 156.273C195.165 156.273 194.335 156.118 193.615 155.809C192.895 155.499 192.285 155.048 191.783 154.455C191.282 153.863 190.881 153.152 190.58 152.322C190.288 151.493 190.088 150.559 189.979 149.52V147.988C190.088 146.895 190.293 145.915 190.594 145.049C190.895 144.183 191.291 143.445 191.783 142.834C192.285 142.214 192.891 141.745 193.602 141.426C194.312 141.098 195.133 140.934 196.062 140.934C196.992 140.934 197.817 141.116 198.537 141.48C199.257 141.836 199.863 142.346 200.355 143.012C200.848 143.677 201.217 144.475 201.463 145.404C201.718 146.325 201.846 147.35 201.846 148.48ZM199.303 148.768V148.48C199.303 147.742 199.225 147.049 199.07 146.402C198.915 145.746 198.674 145.172 198.346 144.68C198.027 144.178 197.617 143.786 197.115 143.504C196.614 143.212 196.017 143.066 195.324 143.066C194.686 143.066 194.13 143.176 193.656 143.395C193.191 143.613 192.795 143.91 192.467 144.283C192.139 144.648 191.87 145.067 191.66 145.541C191.46 146.006 191.309 146.489 191.209 146.99V150.531C191.391 151.169 191.646 151.771 191.975 152.336C192.303 152.892 192.74 153.343 193.287 153.689C193.834 154.027 194.522 154.195 195.352 154.195C196.035 154.195 196.623 154.054 197.115 153.771C197.617 153.48 198.027 153.083 198.346 152.582C198.674 152.081 198.915 151.507 199.07 150.859C199.225 150.203 199.303 149.506 199.303 148.768ZM211.211 156.273C210.181 156.273 209.247 156.1 208.408 155.754C207.579 155.398 206.863 154.902 206.262 154.264C205.669 153.626 205.214 152.869 204.895 151.994C204.576 151.119 204.416 150.162 204.416 149.123V148.549C204.416 147.346 204.594 146.275 204.949 145.336C205.305 144.388 205.788 143.586 206.398 142.93C207.009 142.273 207.702 141.777 208.477 141.439C209.251 141.102 210.053 140.934 210.883 140.934C211.94 140.934 212.852 141.116 213.617 141.48C214.392 141.845 215.025 142.355 215.518 143.012C216.01 143.659 216.374 144.424 216.611 145.309C216.848 146.184 216.967 147.141 216.967 148.18V149.314H205.92V147.25H214.438V147.059C214.401 146.402 214.264 145.764 214.027 145.145C213.799 144.525 213.435 144.014 212.934 143.613C212.432 143.212 211.749 143.012 210.883 143.012C210.309 143.012 209.78 143.135 209.297 143.381C208.814 143.618 208.399 143.973 208.053 144.447C207.706 144.921 207.438 145.5 207.246 146.184C207.055 146.867 206.959 147.656 206.959 148.549V149.123C206.959 149.825 207.055 150.486 207.246 151.105C207.447 151.716 207.734 152.254 208.107 152.719C208.49 153.184 208.951 153.548 209.488 153.812C210.035 154.077 210.655 154.209 211.348 154.209C212.241 154.209 212.997 154.027 213.617 153.662C214.237 153.298 214.779 152.81 215.244 152.199L216.775 153.416C216.456 153.899 216.051 154.359 215.559 154.797C215.066 155.234 214.46 155.59 213.74 155.863C213.029 156.137 212.186 156.273 211.211 156.273ZM229.408 135V156H226.865V135H229.408ZM238.445 141.207L231.992 148.111L228.383 151.857L228.178 149.164L230.762 146.074L235.355 141.207H238.445ZM236.135 156L230.857 148.945L232.17 146.689L239.115 156H236.135ZM246.922 156.273C245.892 156.273 244.958 156.1 244.119 155.754C243.29 155.398 242.574 154.902 241.973 154.264C241.38 153.626 240.924 152.869 240.605 151.994C240.286 151.119 240.127 150.162 240.127 149.123V148.549C240.127 147.346 240.305 146.275 240.66 145.336C241.016 144.388 241.499 143.586 242.109 142.93C242.72 142.273 243.413 141.777 244.188 141.439C244.962 141.102 245.764 140.934 246.594 140.934C247.651 140.934 248.562 141.116 249.328 141.48C250.103 141.845 250.736 142.355 251.229 143.012C251.721 143.659 252.085 144.424 252.322 145.309C252.559 146.184 252.678 147.141 252.678 148.18V149.314H241.631V147.25H250.148V147.059C250.112 146.402 249.975 145.764 249.738 145.145C249.51 144.525 249.146 144.014 248.645 143.613C248.143 143.212 247.46 143.012 246.594 143.012C246.02 143.012 245.491 143.135 245.008 143.381C244.525 143.618 244.11 143.973 243.764 144.447C243.417 144.921 243.148 145.5 242.957 146.184C242.766 146.867 242.67 147.656 242.67 148.549V149.123C242.67 149.825 242.766 150.486 242.957 151.105C243.158 151.716 243.445 152.254 243.818 152.719C244.201 153.184 244.661 153.548 245.199 153.812C245.746 154.077 246.366 154.209 247.059 154.209C247.952 154.209 248.708 154.027 249.328 153.662C249.948 153.298 250.49 152.81 250.955 152.199L252.486 153.416C252.167 153.899 251.762 154.359 251.27 154.797C250.777 155.234 250.171 155.59 249.451 155.863C248.74 156.137 247.897 156.273 246.922 156.273ZM259.596 154.469L263.711 141.207H266.418L260.484 158.283C260.348 158.648 260.165 159.04 259.938 159.459C259.719 159.887 259.436 160.293 259.09 160.676C258.743 161.059 258.324 161.368 257.832 161.605C257.349 161.852 256.77 161.975 256.096 161.975C255.895 161.975 255.64 161.947 255.33 161.893C255.02 161.838 254.801 161.792 254.674 161.756L254.66 159.705C254.733 159.714 254.847 159.723 255.002 159.732C255.166 159.751 255.28 159.76 255.344 159.76C255.918 159.76 256.406 159.682 256.807 159.527C257.208 159.382 257.545 159.131 257.818 158.775C258.101 158.429 258.342 157.951 258.543 157.34L259.596 154.469ZM256.574 141.207L260.416 152.691L261.072 155.357L259.254 156.287L253.812 141.207H256.574ZM272.447 153.375L276.248 141.207H277.916L277.588 143.627L273.719 156H272.092L272.447 153.375ZM269.891 141.207L273.131 153.512L273.363 156H271.654L267.361 141.207H269.891ZM281.553 153.416L284.643 141.207H287.158L282.865 156H281.17L281.553 153.416ZM278.285 141.207L282.004 153.17L282.428 156H280.814L276.836 143.6L276.508 141.207H278.285ZM289.086 148.768V148.453C289.086 147.387 289.241 146.398 289.551 145.486C289.861 144.566 290.307 143.768 290.891 143.094C291.474 142.41 292.18 141.882 293.01 141.508C293.839 141.125 294.769 140.934 295.799 140.934C296.838 140.934 297.772 141.125 298.602 141.508C299.44 141.882 300.151 142.41 300.734 143.094C301.327 143.768 301.778 144.566 302.088 145.486C302.398 146.398 302.553 147.387 302.553 148.453V148.768C302.553 149.834 302.398 150.823 302.088 151.734C301.778 152.646 301.327 153.443 300.734 154.127C300.151 154.801 299.445 155.33 298.615 155.713C297.795 156.087 296.865 156.273 295.826 156.273C294.787 156.273 293.853 156.087 293.023 155.713C292.194 155.33 291.483 154.801 290.891 154.127C290.307 153.443 289.861 152.646 289.551 151.734C289.241 150.823 289.086 149.834 289.086 148.768ZM291.615 148.453V148.768C291.615 149.506 291.702 150.203 291.875 150.859C292.048 151.507 292.308 152.081 292.654 152.582C293.01 153.083 293.452 153.48 293.98 153.771C294.509 154.054 295.124 154.195 295.826 154.195C296.519 154.195 297.125 154.054 297.645 153.771C298.173 153.48 298.611 153.083 298.957 152.582C299.303 152.081 299.563 151.507 299.736 150.859C299.919 150.203 300.01 149.506 300.01 148.768V148.453C300.01 147.724 299.919 147.036 299.736 146.389C299.563 145.732 299.299 145.154 298.943 144.652C298.597 144.142 298.16 143.741 297.631 143.449C297.111 143.158 296.501 143.012 295.799 143.012C295.106 143.012 294.495 143.158 293.967 143.449C293.447 143.741 293.01 144.142 292.654 144.652C292.308 145.154 292.048 145.732 291.875 146.389C291.702 147.036 291.615 147.724 291.615 148.453ZM308.254 143.531V156H305.725V141.207H308.186L308.254 143.531ZM312.875 141.125L312.861 143.477C312.652 143.431 312.451 143.404 312.26 143.395C312.077 143.376 311.868 143.367 311.631 143.367C311.048 143.367 310.533 143.458 310.086 143.641C309.639 143.823 309.261 144.078 308.951 144.406C308.641 144.734 308.395 145.126 308.213 145.582C308.04 146.029 307.926 146.521 307.871 147.059L307.16 147.469C307.16 146.576 307.247 145.737 307.42 144.953C307.602 144.169 307.88 143.477 308.254 142.875C308.628 142.264 309.102 141.79 309.676 141.453C310.259 141.107 310.952 140.934 311.754 140.934C311.936 140.934 312.146 140.956 312.383 141.002C312.62 141.038 312.784 141.079 312.875 141.125ZM324.264 153.129V135H326.807V156H324.482L324.264 153.129ZM314.311 148.768V148.48C314.311 147.35 314.447 146.325 314.721 145.404C315.003 144.475 315.4 143.677 315.91 143.012C316.43 142.346 317.045 141.836 317.756 141.48C318.476 141.116 319.278 140.934 320.162 140.934C321.092 140.934 321.903 141.098 322.596 141.426C323.298 141.745 323.89 142.214 324.373 142.834C324.865 143.445 325.253 144.183 325.535 145.049C325.818 145.915 326.014 146.895 326.123 147.988V149.246C326.023 150.331 325.827 151.306 325.535 152.172C325.253 153.038 324.865 153.776 324.373 154.387C323.89 154.997 323.298 155.467 322.596 155.795C321.894 156.114 321.074 156.273 320.135 156.273C319.269 156.273 318.476 156.087 317.756 155.713C317.045 155.339 316.43 154.815 315.91 154.141C315.4 153.466 315.003 152.673 314.721 151.762C314.447 150.841 314.311 149.843 314.311 148.768ZM316.854 148.48V148.768C316.854 149.506 316.926 150.199 317.072 150.846C317.227 151.493 317.464 152.062 317.783 152.555C318.102 153.047 318.508 153.434 319 153.717C319.492 153.99 320.08 154.127 320.764 154.127C321.602 154.127 322.29 153.949 322.828 153.594C323.375 153.238 323.812 152.769 324.141 152.186C324.469 151.602 324.724 150.969 324.906 150.285V146.99C324.797 146.489 324.637 146.006 324.428 145.541C324.227 145.067 323.963 144.648 323.635 144.283C323.316 143.91 322.919 143.613 322.445 143.395C321.98 143.176 321.429 143.066 320.791 143.066C320.098 143.066 319.501 143.212 319 143.504C318.508 143.786 318.102 144.178 317.783 144.68C317.464 145.172 317.227 145.746 317.072 146.402C316.926 147.049 316.854 147.742 316.854 148.48ZM340.438 141.207V156H337.895V141.207H340.438ZM337.703 137.283C337.703 136.873 337.826 136.527 338.072 136.244C338.327 135.962 338.701 135.82 339.193 135.82C339.676 135.82 340.046 135.962 340.301 136.244C340.565 136.527 340.697 136.873 340.697 137.283C340.697 137.675 340.565 138.012 340.301 138.295C340.046 138.568 339.676 138.705 339.193 138.705C338.701 138.705 338.327 138.568 338.072 138.295C337.826 138.012 337.703 137.675 337.703 137.283ZM347.027 144.365V156H344.498V141.207H346.891L347.027 144.365ZM346.426 148.043L345.373 148.002C345.382 146.99 345.533 146.056 345.824 145.199C346.116 144.333 346.526 143.581 347.055 142.943C347.583 142.305 348.212 141.813 348.941 141.467C349.68 141.111 350.495 140.934 351.389 140.934C352.118 140.934 352.774 141.034 353.357 141.234C353.941 141.426 354.438 141.736 354.848 142.164C355.267 142.592 355.586 143.148 355.805 143.832C356.023 144.507 356.133 145.331 356.133 146.307V156H353.59V146.279C353.59 145.505 353.476 144.885 353.248 144.42C353.02 143.946 352.688 143.604 352.25 143.395C351.812 143.176 351.275 143.066 350.637 143.066C350.008 143.066 349.434 143.199 348.914 143.463C348.404 143.727 347.962 144.092 347.588 144.557C347.223 145.021 346.936 145.555 346.727 146.156C346.526 146.749 346.426 147.378 346.426 148.043ZM373.113 141.207V143.148H365.115V141.207H373.113ZM367.822 137.611H370.352V152.336C370.352 152.837 370.429 153.215 370.584 153.471C370.739 153.726 370.939 153.895 371.186 153.977C371.432 154.059 371.696 154.1 371.979 154.1C372.188 154.1 372.407 154.081 372.635 154.045C372.872 153.999 373.049 153.963 373.168 153.936L373.182 156C372.981 156.064 372.717 156.123 372.389 156.178C372.07 156.242 371.682 156.273 371.227 156.273C370.607 156.273 370.037 156.15 369.518 155.904C368.998 155.658 368.583 155.248 368.273 154.674C367.973 154.09 367.822 153.307 367.822 152.322V137.611ZM378.609 135V156H376.08V135H378.609ZM378.008 148.043L376.955 148.002C376.964 146.99 377.115 146.056 377.406 145.199C377.698 144.333 378.108 143.581 378.637 142.943C379.165 142.305 379.794 141.813 380.523 141.467C381.262 141.111 382.077 140.934 382.971 140.934C383.7 140.934 384.356 141.034 384.939 141.234C385.523 141.426 386.02 141.736 386.43 142.164C386.849 142.592 387.168 143.148 387.387 143.832C387.605 144.507 387.715 145.331 387.715 146.307V156H385.172V146.279C385.172 145.505 385.058 144.885 384.83 144.42C384.602 143.946 384.27 143.604 383.832 143.395C383.395 143.176 382.857 143.066 382.219 143.066C381.59 143.066 381.016 143.199 380.496 143.463C379.986 143.727 379.544 144.092 379.17 144.557C378.805 145.021 378.518 145.555 378.309 146.156C378.108 146.749 378.008 147.378 378.008 148.043ZM397.641 156.273C396.611 156.273 395.676 156.1 394.838 155.754C394.008 155.398 393.293 154.902 392.691 154.264C392.099 153.626 391.643 152.869 391.324 151.994C391.005 151.119 390.846 150.162 390.846 149.123V148.549C390.846 147.346 391.023 146.275 391.379 145.336C391.734 144.388 392.217 143.586 392.828 142.93C393.439 142.273 394.132 141.777 394.906 141.439C395.681 141.102 396.483 140.934 397.312 140.934C398.37 140.934 399.281 141.116 400.047 141.48C400.822 141.845 401.455 142.355 401.947 143.012C402.439 143.659 402.804 144.424 403.041 145.309C403.278 146.184 403.396 147.141 403.396 148.18V149.314H392.35V147.25H400.867V147.059C400.831 146.402 400.694 145.764 400.457 145.145C400.229 144.525 399.865 144.014 399.363 143.613C398.862 143.212 398.178 143.012 397.312 143.012C396.738 143.012 396.21 143.135 395.727 143.381C395.243 143.618 394.829 143.973 394.482 144.447C394.136 144.921 393.867 145.5 393.676 146.184C393.484 146.867 393.389 147.656 393.389 148.549V149.123C393.389 149.825 393.484 150.486 393.676 151.105C393.876 151.716 394.163 152.254 394.537 152.719C394.92 153.184 395.38 153.548 395.918 153.812C396.465 154.077 397.085 154.209 397.777 154.209C398.671 154.209 399.427 154.027 400.047 153.662C400.667 153.298 401.209 152.81 401.674 152.199L403.205 153.416C402.886 153.899 402.48 154.359 401.988 154.797C401.496 155.234 400.89 155.59 400.17 155.863C399.459 156.137 398.616 156.273 397.641 156.273ZM416.043 141.207V156H413.5V141.207H416.043ZM413.309 137.283C413.309 136.873 413.432 136.527 413.678 136.244C413.933 135.962 414.307 135.82 414.799 135.82C415.282 135.82 415.651 135.962 415.906 136.244C416.171 136.527 416.303 136.873 416.303 137.283C416.303 137.675 416.171 138.012 415.906 138.295C415.651 138.568 415.282 138.705 414.799 138.705C414.307 138.705 413.933 138.568 413.678 138.295C413.432 138.012 413.309 137.675 413.309 137.283ZM422.633 144.365V156H420.104V141.207H422.496L422.633 144.365ZM422.031 148.043L420.979 148.002C420.988 146.99 421.138 146.056 421.43 145.199C421.721 144.333 422.132 143.581 422.66 142.943C423.189 142.305 423.818 141.813 424.547 141.467C425.285 141.111 426.101 140.934 426.994 140.934C427.723 140.934 428.38 141.034 428.963 141.234C429.546 141.426 430.043 141.736 430.453 142.164C430.872 142.592 431.191 143.148 431.41 143.832C431.629 144.507 431.738 145.331 431.738 146.307V156H429.195V146.279C429.195 145.505 429.081 144.885 428.854 144.42C428.626 143.946 428.293 143.604 427.855 143.395C427.418 143.176 426.88 143.066 426.242 143.066C425.613 143.066 425.039 143.199 424.52 143.463C424.009 143.727 423.567 144.092 423.193 144.557C422.829 145.021 422.542 145.555 422.332 146.156C422.132 146.749 422.031 147.378 422.031 148.043ZM438.109 144.051V161.688H435.566V141.207H437.891L438.109 144.051ZM448.076 148.48V148.768C448.076 149.843 447.949 150.841 447.693 151.762C447.438 152.673 447.064 153.466 446.572 154.141C446.089 154.815 445.492 155.339 444.781 155.713C444.07 156.087 443.255 156.273 442.334 156.273C441.395 156.273 440.566 156.118 439.846 155.809C439.126 155.499 438.515 155.048 438.014 154.455C437.512 153.863 437.111 153.152 436.811 152.322C436.519 151.493 436.318 150.559 436.209 149.52V147.988C436.318 146.895 436.523 145.915 436.824 145.049C437.125 144.183 437.521 143.445 438.014 142.834C438.515 142.214 439.121 141.745 439.832 141.426C440.543 141.098 441.363 140.934 442.293 140.934C443.223 140.934 444.048 141.116 444.768 141.48C445.488 141.836 446.094 142.346 446.586 143.012C447.078 143.677 447.447 144.475 447.693 145.404C447.949 146.325 448.076 147.35 448.076 148.48ZM445.533 148.768V148.48C445.533 147.742 445.456 147.049 445.301 146.402C445.146 145.746 444.904 145.172 444.576 144.68C444.257 144.178 443.847 143.786 443.346 143.504C442.844 143.212 442.247 143.066 441.555 143.066C440.917 143.066 440.361 143.176 439.887 143.395C439.422 143.613 439.025 143.91 438.697 144.283C438.369 144.648 438.1 145.067 437.891 145.541C437.69 146.006 437.54 146.489 437.439 146.99V150.531C437.622 151.169 437.877 151.771 438.205 152.336C438.533 152.892 438.971 153.343 439.518 153.689C440.064 154.027 440.753 154.195 441.582 154.195C442.266 154.195 442.854 154.054 443.346 153.771C443.847 153.48 444.257 153.083 444.576 152.582C444.904 152.081 445.146 151.507 445.301 150.859C445.456 150.203 445.533 149.506 445.533 148.768ZM460.354 152.582V141.207H462.896V156H460.477L460.354 152.582ZM460.832 149.465L461.885 149.438C461.885 150.422 461.78 151.333 461.57 152.172C461.37 153.001 461.042 153.721 460.586 154.332C460.13 154.943 459.533 155.421 458.795 155.768C458.057 156.105 457.159 156.273 456.102 156.273C455.382 156.273 454.721 156.169 454.119 155.959C453.527 155.749 453.016 155.426 452.588 154.988C452.16 154.551 451.827 153.981 451.59 153.279C451.362 152.577 451.248 151.734 451.248 150.75V141.207H453.777V150.777C453.777 151.443 453.85 151.994 453.996 152.432C454.151 152.86 454.356 153.202 454.611 153.457C454.876 153.703 455.167 153.876 455.486 153.977C455.814 154.077 456.152 154.127 456.498 154.127C457.574 154.127 458.426 153.922 459.055 153.512C459.684 153.092 460.135 152.532 460.408 151.83C460.691 151.119 460.832 150.331 460.832 149.465ZM472.945 141.207V143.148H464.947V141.207H472.945ZM467.654 137.611H470.184V152.336C470.184 152.837 470.261 153.215 470.416 153.471C470.571 153.726 470.771 153.895 471.018 153.977C471.264 154.059 471.528 154.1 471.811 154.1C472.02 154.1 472.239 154.081 472.467 154.045C472.704 153.999 472.882 153.963 473 153.936L473.014 156C472.813 156.064 472.549 156.123 472.221 156.178C471.902 156.242 471.514 156.273 471.059 156.273C470.439 156.273 469.869 156.15 469.35 155.904C468.83 155.658 468.415 155.248 468.105 154.674C467.805 154.09 467.654 153.307 467.654 152.322V137.611ZM489.051 141.207V143.148H481.053V141.207H489.051ZM483.76 137.611H486.289V152.336C486.289 152.837 486.367 153.215 486.521 153.471C486.676 153.726 486.877 153.895 487.123 153.977C487.369 154.059 487.633 154.1 487.916 154.1C488.126 154.1 488.344 154.081 488.572 154.045C488.809 153.999 488.987 153.963 489.105 153.936L489.119 156C488.919 156.064 488.654 156.123 488.326 156.178C488.007 156.242 487.62 156.273 487.164 156.273C486.544 156.273 485.975 156.15 485.455 155.904C484.936 155.658 484.521 155.248 484.211 154.674C483.91 154.09 483.76 153.307 483.76 152.322V137.611ZM498.156 156.273C497.126 156.273 496.192 156.1 495.354 155.754C494.524 155.398 493.809 154.902 493.207 154.264C492.615 153.626 492.159 152.869 491.84 151.994C491.521 151.119 491.361 150.162 491.361 149.123V148.549C491.361 147.346 491.539 146.275 491.895 145.336C492.25 144.388 492.733 143.586 493.344 142.93C493.954 142.273 494.647 141.777 495.422 141.439C496.197 141.102 496.999 140.934 497.828 140.934C498.885 140.934 499.797 141.116 500.562 141.48C501.337 141.845 501.971 142.355 502.463 143.012C502.955 143.659 503.32 144.424 503.557 145.309C503.794 146.184 503.912 147.141 503.912 148.18V149.314H492.865V147.25H501.383V147.059C501.346 146.402 501.21 145.764 500.973 145.145C500.745 144.525 500.38 144.014 499.879 143.613C499.378 143.212 498.694 143.012 497.828 143.012C497.254 143.012 496.725 143.135 496.242 143.381C495.759 143.618 495.344 143.973 494.998 144.447C494.652 144.921 494.383 145.5 494.191 146.184C494 146.867 493.904 147.656 493.904 148.549V149.123C493.904 149.825 494 150.486 494.191 151.105C494.392 151.716 494.679 152.254 495.053 152.719C495.436 153.184 495.896 153.548 496.434 153.812C496.98 154.077 497.6 154.209 498.293 154.209C499.186 154.209 499.943 154.027 500.562 153.662C501.182 153.298 501.725 152.81 502.189 152.199L503.721 153.416C503.402 153.899 502.996 154.359 502.504 154.797C502.012 155.234 501.406 155.59 500.686 155.863C499.975 156.137 499.132 156.273 498.156 156.273ZM508.574 141.207L511.814 146.594L515.096 141.207H518.062L513.223 148.508L518.213 156H515.287L511.869 150.449L508.451 156H505.512L510.488 148.508L505.662 141.207H508.574ZM526.949 141.207V143.148H518.951V141.207H526.949ZM521.658 137.611H524.188V152.336C524.188 152.837 524.265 153.215 524.42 153.471C524.575 153.726 524.775 153.895 525.021 153.977C525.268 154.059 525.532 154.1 525.814 154.1C526.024 154.1 526.243 154.081 526.471 154.045C526.708 153.999 526.885 153.963 527.004 153.936L527.018 156C526.817 156.064 526.553 156.123 526.225 156.178C525.906 156.242 525.518 156.273 525.062 156.273C524.443 156.273 523.873 156.15 523.354 155.904C522.834 155.658 522.419 155.248 522.109 154.674C521.809 154.09 521.658 153.307 521.658 152.322V137.611Z" fill="#383838"/>
<path opacity="0.4" fill-rule="evenodd" clip-rule="evenodd" d="M692.657 24.9118C684.846 32.7223 678.887 34 667.343 36C669.843 23.5 671.077 18.9526 678.887 11.1421C686.102 3.9273 689.763 3.09408 700.526 0.644308C701.415 0.442057 702.352 0.228788 703.343 0C703.193 0.78208 703.05 1.53195 702.913 2.25237C700.771 13.5069 699.998 17.5712 692.657 24.9118ZM761 36.0028C772.544 34.0028 778.503 32.7251 786.314 24.9146C793.654 17.574 794.428 13.5097 796.57 2.25517C796.707 1.53476 796.85 0.784883 797 0.00280263C796.009 0.231591 795.072 0.44486 794.183 0.647111C783.42 3.09688 779.759 3.9301 772.544 11.1449C764.734 18.9554 763.5 23.5028 761 36.0028ZM739.255 11.1421C747.065 18.9526 748.343 24.9118 750.343 36.456C737.843 33.956 733.296 32.7223 725.485 24.9118C718.27 17.6969 717.437 14.0362 714.987 3.2729L714.981 3.24505C714.781 2.36475 714.57 1.43699 714.343 0.455959C715.124 0.606112 715.873 0.748602 716.592 0.8855L716.596 0.88621C727.85 3.02808 731.914 3.80157 739.255 11.1421ZM504.657 114.912C496.846 122.722 490.887 124 479.343 126C481.843 113.5 483.077 108.953 490.887 101.142C498.102 93.9273 501.763 93.0941 512.526 90.6443L512.532 90.643L512.54 90.6411L512.554 90.638C513.434 90.4376 514.362 90.2264 515.343 90C515.193 90.7821 515.05 91.5321 514.913 92.2525C512.771 103.507 511.998 107.571 504.657 114.912ZM573 126.003C584.544 124.003 590.503 122.725 598.314 114.915C605.654 107.574 606.428 103.51 608.57 92.2553C608.707 91.5349 608.85 90.7849 609 90.0028C608.009 90.2316 607.072 90.4448 606.183 90.6471C595.42 93.0969 591.759 93.9301 584.544 101.145C576.734 108.955 575.5 113.503 573 126.003ZM562.343 126.456C560.343 114.912 559.065 108.953 551.255 101.142C543.914 93.8016 539.85 93.0281 528.596 90.8862L528.592 90.8854L527.757 90.7265L527.198 90.6198C526.917 90.5662 526.632 90.5116 526.343 90.456C526.572 91.4474 526.785 92.3844 526.987 93.273C529.437 104.036 530.27 107.697 537.485 114.912C545.296 122.722 549.843 123.956 562.343 126.456ZM550.912 158.576C558.722 150.729 560 144.743 562 133.146C549.5 135.658 544.953 136.897 537.142 144.743C529.927 151.991 529.094 155.668 526.644 166.481C526.442 167.373 526.229 168.315 526 169.311C526.782 169.16 527.532 169.016 528.253 168.878C539.507 166.727 543.571 165.95 550.912 158.576ZM572.657 133.601C584.201 135.61 590.16 136.894 597.971 144.74C605.311 152.114 606.085 156.197 608.227 167.503C608.364 168.227 608.506 168.98 608.657 169.766C607.665 169.536 606.728 169.322 605.84 169.119C595.077 166.658 591.416 165.821 584.201 158.573C576.391 150.727 575.157 146.158 572.657 133.601ZM457.255 101.142C465.065 108.953 466.343 114.912 468.343 126.456C455.843 123.956 451.296 122.722 443.485 114.912C436.27 107.697 435.437 104.036 432.987 93.273C432.785 92.3844 432.572 91.4474 432.343 90.456C433.124 90.6061 433.872 90.7486 434.592 90.8854L434.596 90.8862C445.85 93.0281 449.914 93.8016 457.255 101.142ZM468 133.146C466 144.743 464.722 150.729 456.912 158.576C449.571 165.95 445.507 166.727 434.253 168.878C433.532 169.016 432.782 169.16 432 169.311C432.229 168.315 432.442 167.373 432.644 166.481C435.094 155.668 435.927 151.991 443.142 144.743C450.953 136.897 455.5 135.657 468 133.146ZM479 133.598C490.544 135.608 496.503 136.891 504.314 144.737C511.654 152.112 512.428 156.194 514.57 167.5C514.707 168.224 514.85 168.977 515 169.763C514.036 169.54 513.124 169.331 512.258 169.133L512.23 169.126L512.221 169.125L512.193 169.118L512.187 169.117L512.183 169.116C501.42 166.655 497.759 165.818 490.544 158.57C482.734 150.724 481.5 146.156 479 133.598ZM551.255 191.142C559.065 198.953 560.343 204.912 562.343 216.456C549.843 213.956 545.296 212.722 537.485 204.912C530.27 197.697 529.437 194.036 526.987 183.273L526.864 182.729L526.713 182.067L526.601 181.578C526.517 181.212 526.431 180.838 526.343 180.456C527.125 180.606 527.875 180.749 528.596 180.886C539.85 183.028 543.914 183.802 551.255 191.142ZM573 216.003C584.544 214.003 590.503 212.725 598.314 204.915C605.654 197.574 606.428 193.51 608.57 182.255C608.707 181.535 608.85 180.785 609 180.003C608.485 180.122 607.985 180.236 607.499 180.347C607.065 180.446 606.642 180.543 606.229 180.637L606.189 180.646L606.183 180.647C595.42 183.097 591.759 183.93 584.544 191.145C576.734 198.955 575.5 203.503 573 216.003ZM550.912 248.576C558.722 240.729 560 234.743 562 223.146C549.5 225.658 544.953 226.897 537.142 234.743C529.927 241.991 529.094 245.668 526.644 256.481C526.442 257.373 526.229 258.315 526 259.311C526.782 259.16 527.532 259.016 528.253 258.878C539.507 256.727 543.571 255.95 550.912 248.576ZM572.657 223.601C584.201 225.61 590.16 226.894 597.971 234.74C605.311 242.114 606.085 246.197 608.227 257.503C608.364 258.227 608.506 258.98 608.657 259.766C607.681 259.54 606.758 259.329 605.883 259.128L605.867 259.125L605.863 259.124L605.84 259.119C595.077 256.658 591.416 255.821 584.201 248.573C576.391 240.727 575.157 236.158 572.657 223.601ZM457.255 191.142C465.065 198.953 466.343 204.912 468.343 216.456C455.843 213.956 451.296 212.722 443.485 204.912C436.27 197.697 435.437 194.036 432.987 183.273C432.785 182.384 432.572 181.447 432.343 180.456C433.125 180.606 433.875 180.749 434.596 180.886C445.85 183.028 449.914 183.802 457.255 191.142ZM468 223.146C466 234.743 464.722 240.729 456.912 248.576C449.571 255.95 445.507 256.727 434.253 258.878C433.532 259.016 432.782 259.16 432 259.311C432.229 258.315 432.442 257.373 432.644 256.481C435.094 245.668 435.927 241.991 443.142 234.743C450.953 226.897 455.5 225.657 468 223.146ZM504.657 204.912C496.846 212.722 490.887 214 479.343 216C481.843 203.5 483.077 198.953 490.887 191.142C498.102 183.927 501.763 183.094 512.526 180.644L512.532 180.643C513.419 180.441 514.354 180.228 515.343 180C515.193 180.782 515.05 181.532 514.913 182.253C512.771 193.507 511.998 197.571 504.657 204.912ZM479 223.598C490.544 225.608 496.503 226.891 504.314 234.737C511.654 242.111 512.428 246.194 514.57 257.5C514.707 258.224 514.85 258.977 515 259.763C514.024 259.537 513.102 259.326 512.226 259.126L512.21 259.122L512.206 259.121L512.183 259.116C501.42 256.655 497.759 255.818 490.544 248.57C482.734 240.724 481.5 236.156 479 223.598ZM551.255 281.142C559.065 288.953 560.343 294.912 562.343 306.456C549.843 303.956 545.296 302.722 537.485 294.912C530.27 287.697 529.437 284.036 526.987 273.273C526.785 272.384 526.572 271.447 526.343 270.456C527.125 270.606 527.875 270.749 528.596 270.886C539.85 273.028 543.914 273.802 551.255 281.142ZM573 306.003C584.544 304.003 590.503 302.725 598.314 294.915C605.654 287.574 606.428 283.51 608.57 272.255L608.753 271.291L608.89 270.575L609 270.003C608.009 270.232 607.072 270.445 606.183 270.647C595.42 273.097 591.759 273.93 584.544 281.145C576.734 288.955 575.5 293.503 573 306.003ZM550.912 338.576C558.722 330.729 560 324.743 562 313.146C549.5 315.658 544.953 316.897 537.142 324.743C529.927 331.991 529.094 335.668 526.644 346.481C526.442 347.373 526.229 348.315 526 349.311C526.782 349.16 527.532 349.016 528.253 348.878C539.507 346.727 543.571 345.95 550.912 338.576ZM572.657 313.601C584.201 315.61 590.16 316.894 597.971 324.74C605.311 332.114 606.085 336.197 608.227 347.503C608.364 348.227 608.506 348.98 608.657 349.766C607.905 349.591 607.184 349.426 606.492 349.268L605.867 349.125L605.863 349.124L605.84 349.119C595.077 346.658 591.416 345.821 584.201 338.573C576.391 330.727 575.157 326.158 572.657 313.601ZM457.255 281.142C465.065 288.953 466.343 294.912 468.343 306.456C455.843 303.956 451.296 302.722 443.485 294.912C436.27 287.697 435.437 284.036 432.987 273.273C432.785 272.384 432.572 271.447 432.343 270.456C433.125 270.606 433.875 270.749 434.596 270.886C445.85 273.028 449.914 273.802 457.255 281.142ZM468 313.146C466 324.743 464.722 330.729 456.912 338.576C449.571 345.95 445.507 346.727 434.253 348.878L434.231 348.882L434.219 348.885L434.197 348.889L433.392 349.043L433.031 349.112L432.399 349.234L432 349.311C432.229 348.315 432.442 347.373 432.644 346.481C435.094 335.668 435.927 331.991 443.142 324.743C450.953 316.897 455.5 315.657 468 313.146ZM504.657 294.912C496.846 302.722 490.887 304 479.343 306C481.843 293.5 483.077 288.953 490.887 281.142C498.102 273.927 501.763 273.094 512.526 270.644C513.415 270.442 514.352 270.229 515.343 270C515.274 270.357 515.207 270.708 515.142 271.052L515.041 271.578L514.913 272.253C512.771 283.507 511.998 287.571 504.657 294.912ZM479 313.598C490.544 315.608 496.503 316.891 504.314 324.737C511.654 332.111 512.428 336.194 514.57 347.5C514.707 348.224 514.85 348.977 515 349.763C514.009 349.533 513.072 349.319 512.183 349.116C501.42 346.655 497.759 345.818 490.544 338.57C482.734 330.724 481.5 326.156 479 313.598ZM738.912 68.5756C746.722 60.7294 748 54.743 750 43.1461C737.5 45.6575 732.953 46.8968 725.142 54.743C717.927 61.9908 717.094 65.6683 714.644 76.4808L714.638 76.509L714.626 76.5602L714.606 76.649C714.415 77.4915 714.214 78.377 714 79.3106C714.779 79.1601 715.527 79.0172 716.245 78.8799L716.253 78.8784C727.507 76.7267 731.571 75.9497 738.912 68.5756ZM760.657 43.6013C772.201 45.6104 778.16 46.894 785.971 54.7402C793.311 62.1143 794.085 66.1972 796.227 77.5032C796.364 78.2269 796.506 78.9802 796.657 79.7658C795.665 79.536 794.728 79.3218 793.84 79.1186C783.077 76.6576 779.416 75.8206 772.201 68.5728C764.391 60.7266 763.157 56.1584 760.657 43.6013ZM645.255 11.1421C653.065 18.9526 654.343 24.9118 656.343 36.456C643.843 33.956 639.296 32.7223 631.485 24.9118C624.27 17.697 623.437 14.0362 620.987 3.27305C620.785 2.38443 620.572 1.4474 620.343 0.455963C621.114 0.604225 621.854 0.745016 622.565 0.880329L622.574 0.882119L622.592 0.885508L622.596 0.886215C633.85 3.02808 637.914 3.80158 645.255 11.1421ZM656 43.1461C654 54.743 652.722 60.7294 644.912 68.5756C637.571 75.9497 633.507 76.7268 622.253 78.8784C621.532 79.0162 620.782 79.1595 620 79.3106C620.229 78.3147 620.442 77.3733 620.644 76.4807C623.094 65.6683 623.927 61.9908 631.142 54.743C638.953 46.8968 643.5 45.6575 656 43.1461ZM667 43.5985C678.544 45.6076 684.503 46.8912 692.314 54.7374C699.654 62.1115 700.428 66.1944 702.57 77.5004C702.707 78.2241 702.85 78.9774 703 79.763C702.01 79.5335 701.074 79.3195 700.186 79.1166L700.183 79.1158C689.42 76.6548 685.759 75.8178 678.544 68.57C670.734 60.7238 669.5 56.1556 667 43.5985ZM551.255 11.1421C559.065 18.9526 560.343 24.9118 562.343 36.456C549.843 33.956 545.296 32.7223 537.485 24.9118C530.27 17.697 529.437 14.0362 526.987 3.27305C526.785 2.38443 526.572 1.4474 526.343 0.455963C527.114 0.604225 527.854 0.745016 528.565 0.880329L528.574 0.882119L528.592 0.885508L528.596 0.886215C539.85 3.02808 543.914 3.80158 551.255 11.1421ZM562 43.1461C560 54.743 558.722 60.7294 550.912 68.5756C543.571 75.9497 539.507 76.7268 528.253 78.8784C527.532 79.0162 526.782 79.1595 526 79.3106C526.229 78.3147 526.442 77.3733 526.644 76.4807C529.094 65.6683 529.927 61.9908 537.142 54.743C544.953 46.8968 549.5 45.6575 562 43.1461ZM598.657 24.9118C590.846 32.7223 584.887 34 573.343 36C575.843 23.5 577.077 18.9526 584.887 11.1421C592.102 3.92729 595.763 3.09408 606.526 0.644301L606.531 0.643266L606.544 0.640357L606.557 0.637218L606.56 0.636682L606.57 0.634411C607.445 0.435102 608.368 0.22506 609.343 0C609.193 0.782133 609.05 1.53206 608.913 2.25251V2.25266C606.771 13.507 605.997 17.5713 598.657 24.9118ZM573 43.5985C584.544 45.6076 590.503 46.8912 598.314 54.7374C605.654 62.1115 606.428 66.1944 608.57 77.5002C608.707 78.224 608.85 78.9773 609 79.763C608.01 79.5335 607.074 79.3194 606.186 79.1165L606.183 79.1158C595.42 76.6548 591.759 75.8178 584.544 68.57C576.734 60.7238 575.5 56.1556 573 43.5985ZM739.255 101.142C747.065 108.953 748.343 114.912 750.343 126.456C737.843 123.956 733.296 122.722 725.485 114.912C718.27 107.697 717.437 104.036 714.987 93.2729L714.981 93.2464L714.967 93.1855L714.961 93.1556C714.766 92.3019 714.562 91.4038 714.343 90.456C715.125 90.6064 715.875 90.7491 716.596 90.8862C727.85 93.0281 731.914 93.8016 739.255 101.142ZM761 126.003C772.544 124.003 778.503 122.725 786.314 114.915C793.654 107.574 794.428 103.51 796.57 92.2552C796.707 91.5348 796.85 90.7849 797 90.0028C796.009 90.2316 795.072 90.4449 794.183 90.6471C783.42 93.0969 779.759 93.9301 772.544 101.145C764.734 108.955 763.5 113.503 761 126.003ZM738.912 158.576C746.722 150.729 748 144.743 750 133.146C737.5 135.658 732.953 136.897 725.142 144.743C717.927 151.991 717.094 155.668 714.644 166.481L714.638 166.509C714.438 167.393 714.226 168.325 714 169.311L714.477 169.219C714.745 169.167 715.009 169.116 715.269 169.067L716.253 168.878C727.507 166.727 731.571 165.95 738.912 158.576ZM760.657 133.601C772.201 135.61 778.16 136.894 785.971 144.74C793.311 152.114 794.085 156.197 796.227 167.503C796.364 168.227 796.506 168.98 796.657 169.766C796.071 169.63 795.504 169.5 794.955 169.374L794.411 169.249L793.843 169.119L793.84 169.119C783.077 166.658 779.416 165.821 772.201 158.573C764.391 150.727 763.157 146.158 760.657 133.601ZM645.255 101.142C653.065 108.953 654.343 114.912 656.343 126.456C643.843 123.956 639.296 122.722 631.485 114.912C624.27 107.697 623.437 104.036 620.987 93.273C620.785 92.3844 620.572 91.4474 620.343 90.456C621.125 90.6064 621.875 90.7491 622.596 90.8862C633.85 93.0281 637.914 93.8016 645.255 101.142ZM656 133.146C654 144.743 652.722 150.729 644.912 158.576C637.571 165.95 633.507 166.727 622.253 168.878L622.245 168.88C621.527 169.017 620.779 169.16 620 169.311C620.229 168.315 620.442 167.373 620.644 166.481C623.094 155.668 623.927 151.991 631.142 144.743C638.953 136.897 643.5 135.657 656 133.146ZM692.657 114.912C684.846 122.722 678.887 124 667.343 126C669.843 113.5 671.077 108.953 678.887 101.142C686.102 93.9273 689.763 93.0941 700.526 90.6443C701.415 90.4421 702.352 90.2288 703.343 90C703.193 90.7821 703.05 91.532 702.913 92.2524C700.771 103.507 699.997 107.571 692.657 114.912ZM667 133.598C678.544 135.608 684.503 136.891 692.314 144.737C699.654 152.112 700.428 156.194 702.57 167.5L702.591 167.612C702.64 167.87 702.689 168.132 702.74 168.398L702.8 168.714C702.865 169.057 702.932 169.407 703 169.763C702.009 169.533 701.072 169.319 700.183 169.116C689.42 166.655 685.759 165.818 678.544 158.57C670.734 150.724 669.5 146.156 667 133.598ZM739.255 191.142C747.065 198.953 748.343 204.912 750.343 216.456C737.843 213.956 733.296 212.722 725.485 204.912C718.27 197.697 717.437 194.036 714.987 183.273L714.981 183.246L714.967 183.184L714.961 183.157C714.767 182.303 714.562 181.404 714.343 180.456C715.125 180.606 715.875 180.749 716.596 180.886C727.85 183.028 731.914 183.802 739.255 191.142ZM761 216.003C772.544 214.003 778.503 212.725 786.314 204.915C793.654 197.574 794.428 193.51 796.57 182.255L796.66 181.783L796.749 181.317C796.83 180.889 796.914 180.451 797 180.003C796.009 180.232 795.072 180.445 794.183 180.647C783.42 183.097 779.759 183.93 772.544 191.145C764.734 198.955 763.5 203.503 761 216.003ZM738.912 248.576C746.722 240.729 748 234.743 750 223.146C737.5 225.658 732.953 226.897 725.142 234.743C717.927 241.991 717.094 245.668 714.644 256.481C714.442 257.373 714.229 258.315 714 259.311C714.294 259.254 714.583 259.198 714.867 259.144C715.153 259.089 715.433 259.035 715.709 258.982L716.056 258.916L716.121 258.904L716.139 258.9L716.253 258.878C727.507 256.727 731.571 255.95 738.912 248.576ZM760.657 223.601C772.201 225.61 778.16 226.894 785.971 234.74C793.311 242.114 794.085 246.197 796.227 257.503C796.364 258.227 796.506 258.98 796.657 259.766C795.672 259.537 794.74 259.324 793.856 259.122L793.84 259.119C783.077 256.658 779.416 255.821 772.201 248.573C764.391 240.727 763.157 236.158 760.657 223.601ZM645.255 191.142C653.065 198.953 654.343 204.912 656.343 216.456C643.843 213.956 639.296 212.722 631.485 204.912C624.27 197.697 623.437 194.036 620.987 183.273C620.785 182.384 620.572 181.447 620.343 180.456C620.74 180.532 621.129 180.607 621.509 180.679L622.102 180.792L622.515 180.871L622.596 180.886C633.85 183.028 637.914 183.802 645.255 191.142ZM656 223.146C654 234.743 652.722 240.729 644.912 248.576C637.571 255.95 633.507 256.727 622.253 258.878C621.532 259.016 620.782 259.16 620 259.311C620.229 258.315 620.442 257.373 620.644 256.481C623.094 245.668 623.927 241.991 631.142 234.743C638.953 226.897 643.5 225.657 656 223.146ZM692.657 204.912C684.846 212.722 678.887 214 667.343 216C669.843 203.5 671.077 198.953 678.887 191.142C686.102 183.927 689.763 183.094 700.526 180.644C701.415 180.442 702.352 180.229 703.343 180C703.193 180.782 703.05 181.532 702.913 182.252C700.771 193.507 699.997 197.571 692.657 204.912ZM667 223.598C678.544 225.608 684.503 226.891 692.314 234.737C699.654 242.111 700.428 246.194 702.57 257.5C702.707 258.224 702.85 258.977 703 259.763C702.015 259.535 701.083 259.322 700.2 259.12L700.183 259.116C689.42 256.655 685.759 255.818 678.544 248.57C670.734 240.724 669.5 236.156 667 223.598ZM739.255 281.142C747.065 288.953 748.343 294.912 750.343 306.456C737.843 303.956 733.296 302.722 725.485 294.912C718.27 287.697 717.437 284.036 714.987 273.273L714.981 273.246L714.864 272.732C714.699 272.006 714.526 271.248 714.343 270.456C714.817 270.547 715.279 270.635 715.729 270.721L716.596 270.886C727.85 273.028 731.914 273.802 739.255 281.142ZM761 306.003C772.544 304.003 778.503 302.725 786.314 294.915C793.654 287.574 794.428 283.51 796.57 272.255C796.707 271.535 796.85 270.785 797 270.003C796.009 270.232 795.072 270.445 794.183 270.647C783.42 273.097 779.759 273.93 772.544 281.145C764.734 288.955 763.5 293.503 761 306.003ZM738.912 338.576C746.722 330.729 748 324.743 750 313.146C737.5 315.658 732.953 316.897 725.142 324.743C717.927 331.991 717.094 335.668 714.644 346.481C714.442 347.373 714.229 348.315 714 349.311C714.782 349.16 715.532 349.016 716.253 348.878C727.507 346.727 731.571 345.95 738.912 338.576ZM760.657 313.601C772.201 315.61 778.16 316.894 785.971 324.74C793.311 332.114 794.085 336.197 796.227 347.503C796.364 348.227 796.506 348.98 796.657 349.766C795.672 349.537 794.74 349.324 793.856 349.122L793.84 349.119C783.077 346.658 779.416 345.821 772.201 338.573C764.391 330.727 763.157 326.158 760.657 313.601ZM645.255 281.142C653.065 288.953 654.343 294.912 656.343 306.456C643.843 303.956 639.296 302.722 631.485 294.912C624.27 287.697 623.437 284.036 620.987 273.273C620.785 272.384 620.572 271.447 620.343 270.456C621.125 270.606 621.875 270.749 622.596 270.886C633.85 273.028 637.914 273.802 645.255 281.142ZM656 313.146C654 324.743 652.722 330.729 644.912 338.576C637.571 345.95 633.507 346.727 622.253 348.878L621.351 349.051L620.772 349.162L620.395 349.234L620 349.311C620.229 348.315 620.442 347.373 620.644 346.481C623.094 335.668 623.927 331.991 631.142 324.743C638.953 316.897 643.5 315.657 656 313.146ZM692.657 294.912C684.846 302.722 678.887 304 667.343 306C669.843 293.5 671.077 288.953 678.887 281.142C686.102 273.927 689.763 273.094 700.526 270.644C701.415 270.442 702.352 270.229 703.343 270C703.193 270.782 703.05 271.532 702.913 272.252C700.771 283.507 699.997 287.571 692.657 294.912ZM667 313.598C678.544 315.608 684.503 316.891 692.314 324.737C699.654 332.112 700.428 336.194 702.57 347.5C702.707 348.224 702.85 348.977 703 349.763C702.009 349.533 701.072 349.319 700.183 349.116C689.42 346.655 685.759 345.818 678.544 338.57C670.734 330.724 669.5 326.156 667 313.598ZM269.255 191.142C277.065 198.953 278.343 204.912 280.343 216.456C267.843 213.956 263.296 212.722 255.485 204.912C248.27 197.697 247.437 194.036 244.987 183.273C244.785 182.384 244.572 181.447 244.343 180.456C245.098 180.601 245.823 180.739 246.52 180.872L246.544 180.876L246.562 180.88L246.585 180.884L246.596 180.886C257.85 183.028 261.914 183.802 269.255 191.142ZM291 216.003C302.544 214.003 308.503 212.725 316.314 204.915C323.654 197.574 324.428 193.51 326.57 182.255C326.707 181.535 326.85 180.785 327 180.003C326.021 180.229 325.095 180.44 324.216 180.64L324.208 180.641L324.188 180.646L324.186 180.646L324.183 180.647C313.42 183.097 309.759 183.93 302.544 191.145C294.734 198.955 293.5 203.503 291 216.003ZM268.912 248.576C276.722 240.729 278 234.743 280 223.146C267.5 225.658 262.953 226.897 255.142 234.743C247.927 241.991 247.094 245.668 244.644 256.481C244.442 257.373 244.229 258.315 244 259.311C244.782 259.16 245.532 259.016 246.253 258.878C257.507 256.727 261.571 255.95 268.912 248.576ZM290.657 223.601C302.201 225.61 308.16 226.894 315.971 234.74C323.311 242.114 324.085 246.197 326.227 257.503C326.364 258.227 326.506 258.98 326.657 259.766C325.68 259.539 324.756 259.328 323.88 259.128L323.86 259.123L323.84 259.119C313.077 256.658 309.416 255.821 302.201 248.573C294.391 240.727 293.157 236.158 290.657 223.601ZM269.255 281.142C277.065 288.953 278.343 294.912 280.343 306.456C267.843 303.956 263.296 302.722 255.485 294.912C248.27 287.697 247.437 284.036 244.987 273.273L244.986 273.267L244.984 273.259L244.981 273.245C244.781 272.365 244.57 271.437 244.343 270.456C245.125 270.606 245.875 270.749 246.596 270.886C257.85 273.028 261.914 273.802 269.255 281.142ZM291 306.003C302.544 304.003 308.503 302.725 316.314 294.915C323.654 287.574 324.428 283.51 326.57 272.255C326.707 271.535 326.85 270.785 327 270.003C326.009 270.232 325.072 270.445 324.183 270.647C313.42 273.097 309.759 273.93 302.544 281.145C294.734 288.955 293.5 293.503 291 306.003ZM268.912 338.576C276.722 330.729 278 324.743 280 313.146C267.5 315.658 262.953 316.897 255.142 324.743C247.927 331.991 247.094 335.668 244.644 346.481C244.442 347.373 244.229 348.315 244 349.311C244.782 349.16 245.532 349.016 246.253 348.878C257.507 346.727 261.571 345.95 268.912 338.576ZM290.657 313.601C302.201 315.61 308.16 316.894 315.971 324.74C323.311 332.114 324.085 336.197 326.227 347.503C326.364 348.227 326.506 348.98 326.657 349.766C325.673 349.538 324.742 349.325 323.86 349.123L323.84 349.119C313.077 346.658 309.416 345.821 302.201 338.573C294.391 330.727 293.157 326.158 290.657 313.601ZM175.255 281.142C183.065 288.953 184.343 294.912 186.343 306.456C173.843 303.956 169.296 302.722 161.485 294.912C154.27 287.697 153.437 284.036 150.987 273.273L150.986 273.268L150.983 273.256L150.98 273.242L150.978 273.232L150.977 273.225L150.975 273.22C150.777 272.347 150.567 271.428 150.343 270.456C151.125 270.606 151.875 270.749 152.596 270.886H152.596C163.85 273.028 167.914 273.802 175.255 281.142ZM186 313.146C184 324.743 182.722 330.729 174.912 338.576C167.571 345.95 163.507 346.727 152.253 348.878L152.227 348.883C151.514 349.02 150.773 349.161 150 349.311C150.229 348.315 150.442 347.373 150.644 346.481C153.094 335.668 153.927 331.991 161.142 324.743C168.953 316.897 173.5 315.657 186 313.146ZM222.657 294.912C214.846 302.722 208.887 304 197.343 306C199.843 293.5 201.077 288.953 208.887 281.142C216.102 273.927 219.763 273.094 230.526 270.644C231.415 270.442 232.352 270.229 233.343 270L233.251 270.479L233.151 271.001C233.07 271.425 232.991 271.84 232.914 272.245L232.913 272.253C230.771 283.507 229.998 287.571 222.657 294.912ZM197 313.598C208.544 315.608 214.503 316.891 222.314 324.737C229.654 332.111 230.428 336.194 232.57 347.5C232.707 348.224 232.85 348.977 233 349.763C232.009 349.533 231.072 349.319 230.183 349.116C219.42 346.655 215.759 345.818 208.544 338.57C200.734 330.724 199.5 326.156 197 313.598ZM363.255 191.142C371.065 198.953 372.343 204.912 374.343 216.456C361.843 213.956 357.296 212.722 349.485 204.912C342.27 197.697 341.437 194.036 338.987 183.273C338.785 182.384 338.572 181.447 338.343 180.456C339.125 180.606 339.875 180.749 340.596 180.886C351.85 183.028 355.914 183.802 363.255 191.142ZM374 223.146C372 234.743 370.722 240.729 362.912 248.576C355.571 255.95 351.507 256.727 340.253 258.878C339.532 259.016 338.782 259.16 338 259.311C338.229 258.315 338.442 257.373 338.644 256.481C341.094 245.668 341.927 241.991 349.142 234.743C356.953 226.897 361.5 225.657 374 223.146ZM410.657 204.912C402.846 212.722 396.887 214 385.343 216C387.843 203.5 389.077 198.953 396.887 191.142C404.102 183.927 407.763 183.094 418.526 180.644C419.415 180.442 420.352 180.229 421.343 180C421.279 180.333 421.217 180.66 421.155 180.981C421.072 181.415 420.992 181.839 420.913 182.253C418.771 193.507 417.998 197.571 410.657 204.912ZM385 223.598C396.544 225.608 402.503 226.891 410.314 234.737C417.654 242.111 418.428 246.194 420.57 257.5L420.664 257.998L420.802 258.726C420.867 259.065 420.933 259.411 421 259.763C420.022 259.536 419.097 259.325 418.22 259.124L418.2 259.12L418.183 259.116C407.42 256.655 403.759 255.818 396.544 248.57C388.734 240.724 387.5 236.156 385 223.598ZM363.255 281.142C371.065 288.953 372.343 294.912 374.343 306.456C361.843 303.956 357.296 302.722 349.485 294.912C342.27 287.697 341.437 284.036 338.987 273.273C338.785 272.384 338.572 271.447 338.343 270.456C339.125 270.606 339.875 270.749 340.596 270.886C351.85 273.028 355.914 273.802 363.255 281.142ZM374 313.146C372 324.743 370.722 330.729 362.912 338.576C355.571 345.95 351.507 346.727 340.253 348.878L339.282 349.064C338.865 349.144 338.437 349.226 338 349.311C338.229 348.315 338.442 347.373 338.644 346.481C341.094 335.668 341.927 331.991 349.142 324.743C356.953 316.897 361.5 315.657 374 313.146ZM410.657 294.912C402.846 302.722 396.887 304 385.343 306C387.843 293.5 389.077 288.953 396.887 281.142C404.102 273.927 407.763 273.094 418.526 270.644C419.415 270.442 420.352 270.229 421.343 270C421.193 270.782 421.05 271.532 420.913 272.253C418.771 283.507 417.998 287.571 410.657 294.912ZM385 313.598C396.544 315.608 402.503 316.891 410.314 324.737C417.654 332.111 418.428 336.194 420.57 347.5C420.707 348.224 420.85 348.977 421 349.763C420.009 349.533 419.072 349.319 418.183 349.116C407.42 346.655 403.759 345.818 396.544 338.57C388.734 330.724 387.5 326.156 385 313.598Z" fill="url(#paint0_linear_5133_272845)"/>
<path fill-rule="evenodd" clip-rule="evenodd" d="M12.5321 82H89.3367C94.0513 82 97.9017 85.59 97.9359 90.0175L98.3381 142.109C98.3723 146.537 94.5772 150.122 89.8679 150.122H13.0581C8.34878 150.127 4.4983 146.537 4.46411 142.109L4.0619 90.0175C4.02772 85.59 7.82276 82 12.5321 82Z" fill="#CB012A" fill-opacity="0.7" stroke="#CB012A" stroke-width="7" stroke-linecap="round" stroke-linejoin="round"/>
<path d="M5.40869 87.2344L44.9917 113.996C48.635 116.43 53.5061 116.435 57.1171 114.006L96.6229 87.2344" stroke="#CB012A" stroke-opacity="0.9" stroke-width="8" stroke-linecap="round" stroke-linejoin="round"/>
<path fill-rule="evenodd" clip-rule="evenodd" d="M79.3773 104.643H117.652C120.001 104.643 121.906 106.433 121.906 108.641L121.906 134.623C121.906 136.831 120.001 138.62 117.654 138.62H79.3773C77.0305 138.622 75.1255 136.831 75.1255 134.623L75.1255 108.641C75.1255 106.433 77.0305 104.643 79.3773 104.643Z" fill="#8B8B8B" stroke="#6C6C6C" stroke-width="3" stroke-linecap="round" stroke-linejoin="round"/>
<path d="M75.8718 107.643L95.4298 120.601C97.2361 121.815 99.6635 121.817 101.472 120.605L121.028 107.295" stroke="#6C6C6C" stroke-width="3" stroke-linecap="round" stroke-linejoin="round"/>
<path fill-rule="evenodd" clip-rule="evenodd" d="M98.0722 115.738H136.475C138.832 115.738 140.757 117.533 140.774 119.747L140.972 145.793C140.988 148.007 139.091 149.799 136.736 149.799H98.3311C95.9764 149.802 94.0514 148.007 94.0346 145.793L93.8366 119.747C93.8198 117.533 95.7175 115.738 98.0722 115.738Z" fill="#229BD8" stroke="#0F6EB5" stroke-width="3" stroke-linecap="round" stroke-linejoin="round"/>
<path d="M94.5528 118.868L114.3 131.736C116.122 132.953 118.557 132.956 120.363 131.741L139.725 118.174" stroke="#0F6EB5" stroke-width="3" stroke-linecap="round" stroke-linejoin="round"/>
<path fill-rule="evenodd" clip-rule="evenodd" d="M67.0096 128.289H105.674C108.048 128.289 109.972 130.08 109.972 132.288L109.972 158.27C109.972 160.478 108.048 162.266 105.677 162.266H67.0096C64.6388 162.268 62.7144 160.478 62.7144 158.27L62.7144 132.288C62.7144 130.08 64.6388 128.289 67.0096 128.289Z" fill="#FFB92F" stroke="#F59F00" stroke-width="3" stroke-linecap="round" stroke-linejoin="round"/>
<path d="M63.4684 131.07L83.226 144.249C85.0506 145.463 87.5028 145.465 89.3301 144.253L109.086 131.07" stroke="#F59F00" stroke-width="3" stroke-linecap="round" stroke-linejoin="round"/>
<defs>
<linearGradient id="paint0_linear_5133_272845" x1="528" y1="68" x2="797" y2="350" gradientUnits="userSpaceOnUse">
<stop stop-color="#D60A2F" stop-opacity="0"/>
<stop offset="0.380208" stop-color="#D60A2F" stop-opacity="0.19"/>
<stop offset="1" stop-color="#D60A2F"/>
</linearGradient>
</defs>
</svg>
